HIERARCHY
ROOT joint_0
{
	OFFSET 0.000000 0.000000 0.000000
	CHANNELS 6 Xposition Yposition Zposition Zrotation Yrotation Xrotation 
	JOINT joint_1
	{
		OFFSET 3.886261 -0.864090 119.041016
		CHANNELS 3 Zrotation Yrotation Xrotation
		JOINT joint_2
		{
			OFFSET -8.814819 -1.400200 108.366943
			CHANNELS 3 Zrotation Yrotation Xrotation
			JOINT joint_3
			{
				OFFSET -10.127777 -1.846550 108.123047
				CHANNELS 3 Zrotation Yrotation Xrotation
				JOINT joint_4
				{
					OFFSET -0.104309 -2.852760 150.227051
					CHANNELS 3 Zrotation Yrotation Xrotation
					JOINT joint_5
					{
						OFFSET 20.206146 2.292160 92.163940
						CHANNELS 3 Zrotation Yrotation Xrotation
						End Site
						{
							OFFSET 0.000000 0.000000 0.000000
						}
					}
				}
				JOINT joint_6
				{
					OFFSET 0.345886 -34.260384 83.589966
					CHANNELS 3 Zrotation Yrotation Xrotation
					JOINT joint_7
					{
						OFFSET -3.824402 -146.174217 -19.015991
						CHANNELS 3 Zrotation Yrotation Xrotation
						JOINT joint_8
						{
							OFFSET 134.098145 -24.802032 -261.230957
							CHANNELS 3 Zrotation Yrotation Xrotation
							JOINT joint_9
							{
								OFFSET 123.899048 209.340523 59.187012
								CHANNELS 3 Zrotation Yrotation Xrotation
								End Site
								{
									OFFSET 0.000000 0.000000 0.000000
								}
							}
						}
					}
				}
				JOINT joint_10
				{
					OFFSET -0.423798 31.098438 84.831055
					CHANNELS 3 Zrotation Yrotation Xrotation
					JOINT joint_11
					{
						OFFSET 3.093201 146.891491 -12.504028
						CHANNELS 3 Zrotation Yrotation Xrotation
						JOINT joint_12
						{
							OFFSET 195.631927 -20.967743 -219.380981
							CHANNELS 3 Zrotation Yrotation Xrotation
							JOINT joint_13
							{
								OFFSET -8.651001 -247.511261 -36.616089
								CHANNELS 3 Zrotation Yrotation Xrotation
								End Site
								{
									OFFSET 0.000000 0.000000 0.000000
								}
							}
						}
					}
				}
			}
		}
	}
	JOINT joint_14
	{
		OFFSET 6.948090 -87.642914 -106.942017
		CHANNELS 3 Zrotation Yrotation Xrotation
		JOINT joint_15
		{
			OFFSET -34.394226 4.543823 -458.972961
			CHANNELS 3 Zrotation Yrotation Xrotation
			JOINT joint_16
			{
				OFFSET -17.051544 6.964645 -485.636009
				CHANNELS 3 Zrotation Yrotation Xrotation
				JOINT joint_17
				{
					OFFSET 190.520630 40.462875 -83.888000
					CHANNELS 3 Zrotation Yrotation Xrotation
					End Site
					{
						OFFSET 0.000000 0.000000 0.000000
					}
				}
			}
		}
	}
	JOINT joint_18
	{
		OFFSET 3.929901 87.535423 -107.188965
		CHANNELS 3 Zrotation Yrotation Xrotation
		JOINT joint_19
		{
			OFFSET -34.463440 -10.383845 -458.873047
			CHANNELS 3 Zrotation Yrotation Xrotation
			JOINT joint_20
			{
				OFFSET 14.641205 -11.071349 -485.637978
				CHANNELS 3 Zrotation Yrotation Xrotation
				JOINT joint_21
				{
					OFFSET 194.569275 -4.161928 -84.249998
					CHANNELS 3 Zrotation Yrotation Xrotation
					End Site
					{
						OFFSET 0.000000 0.000000 0.000000
					}
				}
			}
		}
	}
}
MOTION
Frames: 10
Frame Time: 0.016667
-232.803207 -130.937012 1152.958984 15.589760 -4.861870 0.349690 1.213123 -7.078028 -1.653136 1.902213 0.801828 0.400341 1.800130 -1.618868 -0.398435 -1.027922 12.667595 0.233214 0.000000 0.000000 0.000000 -0.752905 11.274504 3.341983 1.516167 20.019856 -0.714588 -52.296800 11.465188 -86.691863 0.000000 0.000000 0.000000 0.515752 24.204526 -1.963405 -7.572765 22.681287 19.823663 27.614052 -36.856361 55.944715 0.000000 0.000000 0.000000 -15.832531 -2.830810 -1.132446 -15.151708 12.601014 -6.403145 -16.408014 -5.539818 -5.846445 0.000000 0.000000 0.000000 -9.519028 -4.389446 1.800920 -9.507839 15.791019 -3.305002 -9.336574 -6.579774 -4.103719 0.000000 0.000000 0.000000 
-233.072418 -131.081940 1152.952026 15.461444 -4.900320 0.383301 1.205814 -7.125211 -1.553568 1.889291 0.807203 0.382717 1.790534 -1.625681 -0.385955 -1.040355 13.281616 -0.055200 0.000000 0.000000 0.000000 -0.779212 11.303840 3.368218 1.625661 19.944059 -0.807734 -52.208065 11.477818 -86.701660 0.000000 0.000000 0.000000 0.402129 24.219465 -2.039788 -7.493546 22.667118 19.719401 27.730229 -36.776343 55.928977 0.000000 0.000000 0.000000 -15.786389 -2.827630 -1.166462 -15.109149 12.606569 -6.391898 -16.368089 -5.519058 -5.834380 0.000000 0.000000 0.000000 -9.471403 -4.338805 1.762410 -9.465125 15.765482 -3.279112 -9.294856 -6.581628 -4.086312 0.000000 0.000000 0.000000 
-233.343292 -131.302017 1152.961060 15.325445 -4.943095 0.428280 1.202989 -7.174195 -1.445964 1.879962 0.813677 0.362676 1.784901 -1.634087 -0.371544 -1.046045 13.913054 -0.401181 0.000000 0.000000 0.000000 -0.808695 11.357015 3.375580 1.705711 19.878702 -0.869322 -52.130440 11.473298 -86.658701 0.000000 0.000000 0.000000 0.319028 24.217367 -2.093283 -7.380168 22.635285 19.593751 27.871475 -36.701180 55.875778 0.000000 0.000000 0.000000 -15.737493 -2.807904 -1.207749 -15.065568 12.581805 -6.376013 -16.323030 -5.485081 -5.823398 0.000000 0.000000 0.000000 -9.420955 -4.277471 1.714571 -9.420584 15.725605 -3.248730 -9.251628 -6.579716 -4.068344 0.000000 0.000000 0.000000 
-233.625198 -131.584244 1152.979980 15.177354 -4.993726 0.484592 1.205038 -7.220476 -1.329783 1.874196 0.817264 0.342184 1.782903 -1.640915 -0.357200 -1.046218 14.570685 -0.808836 0.000000 0.000000 0.000000 -0.843830 11.429030 3.367696 1.765918 19.818047 -0.910000 -52.057875 11.457417 -86.573148 0.000000 0.000000 0.000000 0.259272 24.200405 -2.128705 -7.240083 22.587238 19.448257 28.035636 -36.627904 55.795606 0.000000 0.000000 0.000000 -15.684008 -2.773001 -1.258002 -15.018998 12.535070 -6.356767 -16.272149 -5.440578 -5.812482 0.000000 0.000000 0.000000 -9.366167 -4.203881 1.656314 -9.372731 15.676128 -3.214694 -9.205360 -6.576022 -4.049150 0.000000 0.000000 0.000000 
-233.885193 -131.882126 1152.998047 15.030550 -5.030570 0.542977 1.213868 -7.274347 -1.206242 1.874740 0.819186 0.322815 1.786878 -1.645647 -0.344275 -1.043783 15.211553 -1.247853 0.000000 0.000000 0.000000 -0.909441 11.520634 3.364249 1.823534 19.760130 -0.955552 -51.979723 11.435610 -86.467167 0.000000 0.000000 0.000000 0.229688 24.169847 -2.164640 -7.079105 22.535876 19.310882 28.196506 -36.567086 55.689209 0.000000 0.000000 0.000000 -15.630819 -2.741458 -1.308043 -14.973700 12.469938 -6.327457 -16.218979 -5.389531 -5.802457 0.000000 0.000000 0.000000 -9.311647 -4.139881 1.599308 -9.325184 15.618045 -3.178927 -9.159549 -6.571094 -4.030211 0.000000 0.000000 0.000000 
-234.114273 -132.190826 1152.979980 14.910722 -5.034745 0.598158 1.222647 -7.369324 -1.083141 1.879444 0.815759 0.313552 1.793124 -1.644500 -0.338612 -1.040766 15.820317 -1.705914 0.000000 0.000000 0.000000 -1.011672 11.633894 3.360408 1.892083 19.709650 -0.995370 -51.888546 11.410954 -86.361061 0.000000 0.000000 0.000000 0.253276 24.128569 -2.181873 -6.920902 22.476287 19.178168 28.334034 -36.509941 55.564413 0.000000 0.000000 0.000000 -15.585738 -2.729758 -1.351976 -14.936927 12.388426 -6.282422 -16.169554 -5.336147 -5.795142 0.000000 0.000000 0.000000 -9.266063 -4.109277 1.551091 -9.286210 15.554758 -3.142287 -9.122361 -6.565793 -4.014999 0.000000 0.000000 0.000000 
-234.326904 -132.527420 1152.930054 14.812999 -5.014788 0.653410 1.231392 -7.502630 -0.959217 1.888066 0.808665 0.313614 1.801406 -1.639709 -0.341055 -1.037796 16.416537 -2.193438 0.000000 0.000000 0.000000 -1.143660 11.768953 3.349546 1.965501 19.667662 -1.020927 -51.787346 11.382093 -86.247102 0.000000 0.000000 0.000000 0.323832 24.076856 -2.172469 -6.763602 22.403646 19.038987 28.458641 -36.451012 55.421413 0.000000 0.000000 0.000000 -15.547271 -2.730530 -1.393131 -14.907391 12.288886 -6.224389 -16.122935 -5.277597 -5.790650 0.000000 0.000000 0.000000 -9.227555 -4.103859 1.507254 -9.254320 15.486260 -3.104199 -9.092344 -6.559343 -4.002875 0.000000 0.000000 0.000000 
-234.463577 -132.784760 1152.979004 14.662369 -4.988378 0.705509 1.271006 -7.549124 -0.811383 1.913430 0.802010 0.297256 1.829461 -1.630947 -0.330624 -1.030963 16.923146 -2.667083 0.000000 0.000000 0.000000 -1.331386 11.914683 3.412301 2.027229 19.606589 -1.154361 -51.682122 11.346645 -86.094288 0.000000 0.000000 0.000000 0.382715 24.006799 -2.276788 -6.521473 22.370832 18.990917 28.578015 -36.463546 55.226049 0.000000 0.000000 0.000000 -15.492974 -2.728333 -1.430598 -14.863318 12.173540 -6.159175 -16.060546 -5.207984 -5.782138 0.000000 0.000000 0.000000 -9.171850 -4.084940 1.468501 -9.204340 15.401387 -3.065958 -9.044444 -6.552228 -3.983256 0.000000 0.000000 0.000000 
-234.628265 -132.885193 1153.220947 14.409981 -5.010646 0.755796 1.373241 -7.393053 -0.610840 1.972014 0.800973 0.237161 1.898543 -1.620807 -0.289128 -1.027778 17.319128 -3.080867 0.000000 0.000000 0.000000 -1.625206 12.046938 3.662888 2.059706 19.493556 -1.558569 -51.590545 11.307903 -85.907659 0.000000 0.000000 0.000000 0.412798 23.881067 -2.680897 -6.164992 22.386303 19.199855 28.615312 -36.580521 55.033249 0.000000 0.000000 0.000000 -15.408168 -2.678685 -1.477026 -14.791492 12.046954 -6.097892 -15.972230 -5.118379 -5.766579 0.000000 0.000000 0.000000 -9.081912 -3.997551 1.422957 -9.119276 15.310043 -3.032218 -8.961324 -6.547565 -3.948691 0.000000 0.000000 0.000000 
-234.847122 -132.870926 1153.607056 14.084712 -5.076805 0.806026 1.526289 -7.078239 -0.368560 2.060380 0.800358 0.144415 2.003354 -1.607617 -0.223519 -1.030245 17.635503 -3.450215 0.000000 0.000000 0.000000 -2.015471 12.168206 4.072711 2.065208 19.339420 -2.191714 -51.509031 11.268650 -85.698557 0.000000 0.000000 0.000000 0.435305 23.698632 -3.333540 -5.725345 22.427534 19.629963 28.564889 -36.772783 54.857081 0.000000 0.000000 0.000000 -15.301962 -2.585410 -1.533835 -14.700872 11.907731 -6.037811 -15.865544 -5.010739 -5.746833 0.000000 0.000000 0.000000 -8.967533 -3.854398 1.369756 -9.009260 15.215963 -3.002515 -8.853158 -6.544706 -3.903458 0.000000 0.000000 0.000000 
